# 3ds Max Wavefront OBJ Exporter v0.97b - (c)2007 guruware
# File Created: 25.04.2014 15:24:45

mtllib Tube.mtl

#
# object Tube001
#

v  -14.7702 37.8996 -16.0072
v  -14.7702 -26.1081 -16.0072
v  -8.7852 -26.1081 -15.4177
v  -8.7852 37.8996 -15.4177
v  -3.0301 -26.1081 -13.6719
v  -3.0301 37.8996 -13.6719
v  -3.0301 80.3335 -13.6719
v  2.2737 37.8996 -10.8370
v  2.2737 80.3335 -10.8370
v  2.2737 -26.1081 -10.8370
v  6.9226 37.8996 -7.0217
v  6.9226 80.3335 -7.0217
v  6.9226 -26.1081 -7.0217
v  10.7378 37.8996 -2.3729
v  10.7378 80.3335 -2.3729
v  10.7378 -26.1081 -2.3729
v  13.5728 37.8996 2.9310
v  13.5728 80.3335 2.9310
v  13.5728 -26.1081 2.9310
v  15.3186 -26.1081 8.6860
v  15.3186 37.8996 8.6860
v  15.9080 -26.1081 14.6711
v  15.9080 37.8996 14.6711
v  15.3186 -26.1081 20.6561
v  15.3186 37.8996 20.6561
v  13.5728 -26.1081 26.4111
v  13.5728 37.8996 26.4111
v  13.5728 80.3335 26.4111
v  10.7378 37.8996 31.7150
v  10.7378 80.3335 31.7150
v  10.7378 -26.1081 31.7150
v  6.9226 37.8996 36.3638
v  6.9226 80.3335 36.3638
v  6.9226 -26.1081 36.3638
v  2.2737 37.8996 40.1791
v  2.2737 80.3335 40.1791
v  2.2737 -26.1081 40.1791
v  -3.0301 37.8996 43.0140
v  -3.0301 80.3335 43.0140
v  -3.0301 -26.1081 43.0140
v  -8.7851 -26.1081 44.7598
v  -8.7851 37.8996 44.7598
v  -14.7702 -26.1081 45.3493
v  -14.7702 37.8996 45.3493
v  -20.7552 -26.1081 44.7598
v  -20.7552 37.8996 44.7598
v  -26.5102 -26.1081 43.0140
v  -26.5102 37.8996 43.0140
v  -26.5102 80.3335 43.0140
v  -31.8141 37.8996 40.1791
v  -31.8141 80.3335 40.1791
v  -31.8141 -26.1081 40.1791
v  -36.4629 37.8996 36.3638
v  -36.4629 80.3335 36.3638
v  -36.4629 -26.1081 36.3638
v  -40.2782 37.8996 31.7150
v  -40.2782 80.3335 31.7150
v  -40.2782 -26.1081 31.7150
v  -43.1131 37.8996 26.4111
v  -43.1131 80.3335 26.4111
v  -43.1131 -26.1081 26.4111
v  -44.8589 37.8996 20.6561
v  -44.8589 80.3335 20.6561
v  -44.8589 -26.1081 20.6561
v  -45.4484 37.8996 14.6710
v  -45.4484 80.3335 14.6710
v  -45.4484 -26.1081 14.6710
v  -44.8589 37.8996 8.6860
v  -44.8589 80.3335 8.6860
v  -44.8589 -26.1081 8.6860
v  -43.1131 37.8996 2.9310
v  -43.1131 80.3335 2.9310
v  -43.1131 -26.1081 2.9310
v  -40.2782 37.8996 -2.3729
v  -40.2782 80.3335 -2.3729
v  -40.2782 -26.1081 -2.3729
v  -36.4629 37.8996 -7.0217
v  -36.4629 80.3335 -7.0217
v  -36.4629 -26.1081 -7.0217
v  -31.8141 37.8996 -10.8370
v  -31.8141 80.3335 -10.8370
v  -31.8141 -26.1081 -10.8370
v  -26.5102 37.8996 -13.6719
v  -26.5102 80.3335 -13.6719
v  -26.5102 -26.1081 -13.6719
v  -20.7552 -26.1081 -15.4177
v  -20.7552 37.8996 -15.4177
v  -8.7852 80.3335 -15.4177
v  -14.7702 80.3335 -16.0072
v  -14.7702 77.3100 -16.0072
v  -8.7852 77.3100 -15.4177
v  -20.7552 80.3335 -15.4177
v  -20.7552 77.3100 -15.4177
v  -22.7676 77.3100 -14.8072
v  -22.7676 40.9231 -14.8072
v  -20.7552 40.9231 -15.4177
v  -14.7702 40.9231 -16.0072
v  -8.7852 40.9231 -15.4177
v  -6.7727 40.9231 -14.8072
v  -6.7727 77.3100 -14.8072
v  14.7081 40.9231 6.6736
v  14.7081 77.3100 6.6736
v  15.3186 40.9231 8.6860
v  15.9080 40.9231 14.6711
v  15.3186 40.9231 20.6561
v  14.7081 40.9231 22.6685
v  14.7081 77.3100 22.6685
v  15.3186 80.3335 20.6561
v  15.3186 77.3100 20.6561
v  15.9080 80.3335 14.6711
v  15.9080 77.3100 14.6711
v  15.3186 80.3335 8.6860
v  15.3186 77.3100 8.6860
v  -6.7727 40.9231 44.1493
v  -6.7727 77.3100 44.1493
v  -8.7851 40.9231 44.7598
v  -14.7702 40.9231 45.3493
v  -20.7552 40.9231 44.7598
v  -22.7676 40.9231 44.1493
v  -22.7676 77.3100 44.1493
v  -20.7552 80.3335 44.7598
v  -20.7552 77.3100 44.7598
v  -14.7702 80.3335 45.3493
v  -14.7702 77.3100 45.3493
v  -8.7851 80.3335 44.7598
v  -8.7851 77.3100 44.7598
v  -14.7702 77.3100 -18.6220
v  -8.7852 77.3100 -18.0325
v  -20.7552 77.3100 -18.0325
v  -22.7676 77.3100 -17.4220
v  -22.7676 40.9231 -17.4220
v  -20.7552 40.9231 -18.0325
v  -14.7702 40.9231 -18.6220
v  -8.7852 40.9231 -18.0325
v  -6.7727 40.9231 -17.4220
v  -6.7727 77.3100 -17.4220
v  17.3229 40.9231 6.6736
v  17.3229 77.3100 6.6736
v  17.9334 40.9231 8.6860
v  18.5228 40.9231 14.6711
v  17.9334 40.9231 20.6561
v  17.3229 40.9231 22.6685
v  17.3229 77.3100 22.6685
v  17.9334 77.3100 20.6561
v  18.5228 77.3100 14.6711
v  17.9334 77.3100 8.6860
v  -6.7727 40.9231 46.7641
v  -6.7727 77.3100 46.7641
v  -8.7851 40.9231 47.3746
v  -14.7702 40.9231 47.9641
v  -20.7552 40.9231 47.3746
v  -22.7676 40.9231 46.7641
v  -22.7676 77.3100 46.7641
v  -20.7552 77.3100 47.3746
v  -14.7702 77.3100 47.9641
v  -8.7851 77.3100 47.3746
v  -8.7852 1087.9584 -15.4177
v  -14.7702 1087.9584 -16.0072
v  -3.0301 1087.9584 -13.6719
v  2.2737 1087.9584 -10.8370
v  6.9226 1087.9584 -7.0217
v  10.7378 1087.9584 -2.3729
v  13.5728 1087.9584 2.9310
v  15.3186 1087.9584 8.6860
v  15.9080 1087.9584 14.6711
v  15.3186 1087.9584 20.6561
v  13.5728 1087.9584 26.4111
v  10.7378 1087.9584 31.7150
v  6.9226 1087.9584 36.3638
v  2.2737 1087.9584 40.1791
v  -3.0301 1087.9584 43.0140
v  -8.7851 1087.9584 44.7598
v  -14.7702 1087.9584 45.3493
v  -20.7552 1087.9584 44.7598
v  -26.5102 1087.9584 43.0140
v  -31.8141 1087.9584 40.1791
v  -36.4629 1087.9584 36.3638
v  -40.2782 1087.9584 31.7150
v  -43.1131 1087.9584 26.4111
v  -44.8589 1087.9584 20.6561
v  -45.4484 1087.9584 14.6710
v  -44.8589 1087.9584 8.6860
v  -43.1131 1087.9584 2.9310
v  -40.2782 1087.9584 -2.3729
v  -36.4629 1087.9584 -7.0217
v  -31.8141 1087.9584 -10.8370
v  -26.5102 1087.9584 -13.6719
v  -20.7552 1087.9584 -15.4177
# 188 vertices

vn -0.0000 0.0000 1.0000
vn -0.0000 -0.0000 1.0000
vn -0.1951 -0.0000 0.9808
vn -0.1951 0.0000 0.9808
vn -0.3827 0.0000 0.9239
vn -0.3827 -0.0000 0.9239
vn -0.5556 0.0000 0.8315
vn -0.7071 0.0000 0.7071
vn -0.7071 -0.0000 0.7071
vn -0.8315 0.0000 0.5556
vn -0.8315 -0.0000 0.5556
vn -0.9239 0.0000 0.3827
vn -0.9239 -0.0000 0.3827
vn -0.9808 -0.0000 0.1951
vn -1.0000 -0.0000 -0.0000
vn -1.0000 -0.0000 0.0000
vn -0.9808 -0.0000 -0.1951
vn -0.9808 0.0000 -0.1951
vn -0.9239 -0.0000 -0.3827
vn -0.9239 0.0000 -0.3827
vn -0.8315 0.0000 -0.5556
vn -0.8315 -0.0000 -0.5556
vn -0.7071 -0.0000 -0.7071
vn -0.7071 0.0000 -0.7071
vn -0.5556 0.0000 -0.8315
vn -0.5556 -0.0000 -0.8315
vn -0.3827 0.0000 -0.9239
vn -0.3827 -0.0000 -0.9239
vn -0.1951 0.0000 -0.9808
vn -0.0000 -0.0000 -1.0000
vn -0.0000 0.0000 -1.0000
vn 0.1951 -0.0000 -0.9808
vn 0.1951 0.0000 -0.9808
vn 0.3827 0.0000 -0.9239
vn 0.3827 -0.0000 -0.9239
vn 0.5556 -0.0000 -0.8315
vn 0.5556 0.0000 -0.8315
vn 0.7071 -0.0000 -0.7071
vn 0.7071 0.0000 -0.7071
vn 0.8315 -0.0000 -0.5556
vn 0.8315 0.0000 -0.5556
vn 0.9239 -0.0000 -0.3827
vn 0.9239 0.0000 -0.3827
vn 0.9808 0.0000 -0.1951
vn 0.9808 -0.0000 -0.1951
vn 1.0000 -0.0000 0.0000
vn 1.0000 0.0000 0.0000
vn 0.9808 -0.0000 0.1951
vn 0.9808 0.0000 0.1951
vn 0.9239 -0.0000 0.3827
vn 0.9239 0.0000 0.3827
vn 0.8315 0.0000 0.5556
vn 0.8315 -0.0000 0.5556
vn 0.7071 0.0000 0.7071
vn 0.7071 -0.0000 0.7071
vn 0.5556 -0.0000 0.8315
vn 0.5556 0.0000 0.8315
vn 0.3827 0.0000 0.9239
vn 0.3827 -0.0000 0.9239
vn 0.1951 0.0000 0.9808
vn 0.1951 -0.0000 0.9808
vn 0.2903 -0.0000 0.9569
vn 0.2903 0.0000 0.9569
vn -0.2903 0.0000 0.9569
vn -0.2903 -0.0000 0.9569
vn -0.9569 0.0000 0.2903
vn -0.9808 0.0000 0.1951
vn -0.9569 0.0000 -0.2903
vn -1.0000 0.0000 -0.0000
vn -0.2903 0.0000 -0.9569
vn -0.2903 -0.0000 -0.9569
vn 0.2903 -0.0000 -0.9569
vn 0.2903 0.0000 -0.9569
vn -0.1951 -0.0000 -0.9808
vn 0.0000 -1.0000 -0.0000
vn 0.0000 1.0000 -0.0000
vn 0.0000 0.0000 1.0000
vn 1.0000 0.0000 -0.0000
# 78 vertex normals

vt 0.6667 0.0000 0.0000
vt 0.8333 0.0000 0.0000
vt 0.8333 0.0313 0.0000
vt 0.6667 0.0313 0.0000
vt 0.8333 0.0625 0.0000
vt 0.6667 0.0625 0.0000
vt 0.5000 0.0625 0.0000
vt 0.6667 0.0938 0.0000
vt 0.5000 0.0938 0.0000
vt 0.8333 0.0938 0.0000
vt 0.6667 0.1250 0.0000
vt 0.5000 0.1250 0.0000
vt 0.8333 0.1250 0.0000
vt 0.6667 0.1563 0.0000
vt 0.5000 0.1563 0.0000
vt 0.8333 0.1563 0.0000
vt 0.6667 0.1875 0.0000
vt 0.5000 0.1875 0.0000
vt 0.8333 0.1875 0.0000
vt 0.8333 0.2188 0.0000
vt 0.6667 0.2188 0.0000
vt 0.8333 0.2500 0.0000
vt 0.6667 0.2500 0.0000
vt 0.8333 0.2813 0.0000
vt 0.6667 0.2813 0.0000
vt 0.8333 0.3125 0.0000
vt 0.6667 0.3125 0.0000
vt 0.5000 0.3125 0.0000
vt 0.6667 0.3438 0.0000
vt 0.5000 0.3438 0.0000
vt 0.8333 0.3438 0.0000
vt 0.6667 0.3750 0.0000
vt 0.5000 0.3750 0.0000
vt 0.8333 0.3750 0.0000
vt 0.6667 0.4063 0.0000
vt 0.5000 0.4063 0.0000
vt 0.8333 0.4063 0.0000
vt 0.6667 0.4375 0.0000
vt 0.5000 0.4375 0.0000
vt 0.8333 0.4375 0.0000
vt 0.8333 0.4688 0.0000
vt 0.6667 0.4688 0.0000
vt 0.8333 0.5000 0.0000
vt 0.6667 0.5000 0.0000
vt 0.8333 0.5313 0.0000
vt 0.6667 0.5313 0.0000
vt 0.8333 0.5625 0.0000
vt 0.6667 0.5625 0.0000
vt 0.5000 0.5625 0.0000
vt 0.6667 0.5938 0.0000
vt 0.5000 0.5938 0.0000
vt 0.8333 0.5938 0.0000
vt 0.6667 0.6250 0.0000
vt 0.5000 0.6250 0.0000
vt 0.8333 0.6250 0.0000
vt 0.6667 0.6563 0.0000
vt 0.5000 0.6563 0.0000
vt 0.8333 0.6563 0.0000
vt 0.6667 0.6875 0.0000
vt 0.5000 0.6875 0.0000
vt 0.8333 0.6875 0.0000
vt 0.6667 0.7188 0.0000
vt 0.5000 0.7188 0.0000
vt 0.8333 0.7188 0.0000
vt 0.6667 0.7500 0.0000
vt 0.5000 0.7500 0.0000
vt 0.8333 0.7500 0.0000
vt 0.6667 0.7813 0.0000
vt 0.5000 0.7813 0.0000
vt 0.8333 0.7813 0.0000
vt 0.6667 0.8125 0.0000
vt 0.5000 0.8125 0.0000
vt 0.8333 0.8125 0.0000
vt 0.6667 0.8438 0.0000
vt 0.5000 0.8438 0.0000
vt 0.8333 0.8438 0.0000
vt 0.6667 0.8750 0.0000
vt 0.5000 0.8750 0.0000
vt 0.8333 0.8750 0.0000
vt 0.6667 0.9063 0.0000
vt 0.5000 0.9063 0.0000
vt 0.8333 0.9063 0.0000
vt 0.6667 0.9375 0.0000
vt 0.5000 0.9375 0.0000
vt 0.8333 0.9375 0.0000
vt 0.8333 0.9688 0.0000
vt 0.6667 0.9688 0.0000
vt 0.8333 1.0000 0.0000
vt 0.6667 1.0000 0.0000
vt 0.5000 0.0313 0.0000
vt 0.5000 0.0000 0.0000
vt 0.5000 1.0000 0.0000
vt 0.5000 0.9688 0.0000
vt 0.5000 0.2813 0.0000
vt 0.5000 0.2500 0.0000
vt 0.5000 0.2188 0.0000
vt 0.5000 0.5313 0.0000
vt 0.5000 0.5000 0.0000
vt 0.5000 0.4688 0.0000
# 99 texture coords

g Tube001
usemtl wire_135006006
s 1
f 1/1/1 2/2/2 3/3/3 4/4/4 
f 4/4/4 3/3/3 5/5/5 6/6/5 
f 7/7/6 6/6/5 8/8/7 9/9/7 
f 6/6/5 5/5/5 10/10/7 8/8/7 
f 9/9/7 8/8/7 11/11/8 12/12/8 
f 8/8/7 10/10/7 13/13/9 11/11/8 
f 12/12/8 11/11/8 14/14/10 15/15/10 
f 11/11/8 13/13/9 16/16/11 14/14/10 
f 15/15/10 14/14/10 17/17/12 18/18/12 
f 14/14/10 16/16/11 19/19/13 17/17/12 
f 17/17/12 19/19/13 20/20/14 21/21/14 
f 21/21/14 20/20/14 22/22/15 23/23/16 
f 23/23/16 22/22/15 24/24/17 25/25/18 
f 25/25/18 24/24/17 26/26/19 27/27/20 
f 28/28/20 27/27/20 29/29/21 30/30/21 
f 27/27/20 26/26/19 31/31/22 29/29/21 
f 30/30/21 29/29/21 32/32/23 33/33/24 
f 29/29/21 31/31/22 34/34/23 32/32/23 
f 33/33/24 32/32/23 35/35/25 36/36/25 
f 32/32/23 34/34/23 37/37/26 35/35/25 
f 36/36/25 35/35/25 38/38/27 39/39/28 
f 35/35/25 37/37/26 40/40/28 38/38/27 
f 38/38/27 40/40/28 41/41/29 42/42/29 
f 42/42/29 41/41/29 43/43/30 44/44/31 
f 44/44/31 43/43/30 45/45/32 46/46/33 
f 46/46/33 45/45/32 47/47/34 48/48/35 
f 49/49/34 48/48/35 50/50/36 51/51/36 
f 48/48/35 47/47/34 52/52/37 50/50/36 
f 51/51/36 50/50/36 53/53/38 54/54/38 
f 50/50/36 52/52/37 55/55/39 53/53/38 
f 54/54/38 53/53/38 56/56/40 57/57/40 
f 53/53/38 55/55/39 58/58/41 56/56/40 
f 57/57/40 56/56/40 59/59/42 60/60/43 
f 56/56/40 58/58/41 61/61/43 59/59/42 
f 60/60/43 59/59/42 62/62/44 63/63/45 
f 59/59/42 61/61/43 64/64/44 62/62/44 
f 63/63/45 62/62/44 65/65/46 66/66/46 
f 62/62/44 64/64/44 67/67/47 65/65/46 
f 66/66/46 65/65/46 68/68/48 69/69/48 
f 65/65/46 67/67/47 70/70/49 68/68/48 
f 69/69/48 68/68/48 71/71/50 72/72/50 
f 68/68/48 70/70/49 73/73/51 71/71/50 
f 72/72/50 71/71/50 74/74/52 75/75/53 
f 71/71/50 73/73/51 76/76/52 74/74/52 
f 75/75/53 74/74/52 77/77/54 78/78/55 
f 74/74/52 76/76/52 79/79/54 77/77/54 
f 78/78/55 77/77/54 80/80/56 81/81/57 
f 77/77/54 79/79/54 82/82/57 80/80/56 
f 81/81/57 80/80/56 83/83/58 84/84/59 
f 80/80/56 82/82/57 85/85/58 83/83/58 
f 83/83/58 85/85/58 86/86/60 87/87/60 
f 87/87/60 86/86/60 2/88/2 1/89/1 
f 88/90/4 89/91/1 90/91/1 91/90/3 
f 89/92/1 92/93/61 93/93/60 90/92/1 
f 92/93/61 84/84/59 94/84/62 93/93/60 
f 84/84/59 83/83/58 95/83/63 94/84/62 
f 83/83/58 87/87/60 96/87/60 95/83/63 
f 87/87/60 1/89/1 97/89/1 96/87/60 
f 1/1/1 4/4/4 98/4/4 97/1/1 
f 4/4/4 6/6/5 99/6/64 98/4/4 
f 6/6/5 7/7/6 100/7/65 99/6/64 
f 7/7/6 88/90/4 91/90/3 100/7/65 
f 18/18/12 17/17/12 101/17/66 102/18/66 
f 17/17/12 21/21/14 103/21/67 101/17/66 
f 21/21/14 23/23/16 104/23/16 103/21/67 
f 23/23/16 25/25/18 105/25/17 104/23/16 
f 25/25/18 27/27/20 106/27/68 105/25/17 
f 27/27/20 28/28/20 107/28/68 106/27/68 
f 28/28/20 108/94/17 109/94/18 107/28/68 
f 108/94/17 110/95/15 111/95/69 109/94/18 
f 110/95/15 112/96/67 113/96/67 111/95/69 
f 112/96/67 18/18/12 102/18/66 113/96/67 
f 39/39/28 38/38/27 114/38/70 115/39/71 
f 38/38/27 42/42/29 116/42/29 114/38/70 
f 42/42/29 44/44/31 117/44/31 116/42/29 
f 44/44/31 46/46/33 118/46/33 117/44/31 
f 46/46/33 48/48/35 119/48/72 118/46/33 
f 48/48/35 49/49/34 120/49/73 119/48/72 
f 49/49/34 121/97/33 122/97/33 120/49/73 
f 121/97/33 123/98/31 124/98/31 122/97/33 
f 123/98/31 125/99/74 126/99/29 124/98/31 
f 125/99/74 39/39/28 115/39/71 126/99/29 
s 2
f 91/90/75 90/91/75 127/91/75 128/90/75 
f 90/92/75 93/93/75 129/93/75 127/92/75 
f 93/93/75 94/84/75 130/84/75 129/93/75 
s 4
f 94/84/47 95/83/47 131/83/47 130/84/47 
s 2
f 95/83/76 96/87/76 132/87/76 131/83/76 
f 96/87/76 97/89/76 133/89/76 132/87/76 
f 97/1/76 98/4/76 134/4/76 133/1/76 
f 98/4/76 99/6/76 135/6/76 134/4/76 
s 4
f 99/6/15 100/7/15 136/7/15 135/6/69 
s 2
f 100/7/75 91/90/75 128/90/75 136/7/75 
f 102/18/77 101/17/77 137/17/77 138/18/77 
s 4
f 101/17/76 103/21/76 139/21/76 137/17/76 
f 103/21/76 104/23/76 140/23/76 139/21/76 
f 104/23/76 105/25/76 141/25/76 140/23/76 
f 105/25/76 106/27/76 142/27/76 141/25/76 
s 2
f 106/27/31 107/28/31 143/28/31 142/27/31 
s 4
f 107/28/75 109/94/75 144/94/75 143/28/75 
f 109/94/75 111/95/75 145/95/75 144/94/75 
f 111/95/75 113/96/75 146/96/75 145/95/75 
f 113/96/75 102/18/75 138/18/75 146/96/75 
s 2
f 115/39/69 114/38/69 147/38/69 148/39/69 
s 4
f 114/38/76 116/42/76 149/42/76 147/38/76 
f 116/42/76 117/44/76 150/44/76 149/42/76 
f 117/44/76 118/46/76 151/46/76 150/44/76 
f 118/46/76 119/48/76 152/48/76 151/46/76 
s 2
f 119/48/78 120/49/78 153/49/78 152/48/78 
s 4
f 120/49/75 122/97/75 154/97/75 153/49/75 
f 122/97/75 124/98/75 155/98/75 154/97/75 
f 124/98/75 126/99/75 156/99/75 155/98/75 
f 126/99/75 115/39/75 148/39/75 156/99/75 
s 1
f 89/91/1 88/90/4 157/90/4 158/91/1 
f 88/90/4 7/7/6 159/7/5 157/90/4 
f 7/7/6 9/9/7 160/9/7 159/7/5 
f 9/9/7 12/12/8 161/12/8 160/9/7 
f 12/12/8 15/15/10 162/15/10 161/12/8 
f 15/15/10 18/18/12 163/18/12 162/15/10 
f 18/18/12 112/96/67 164/96/67 163/18/12 
f 112/96/67 110/95/15 165/95/69 164/96/67 
f 110/95/15 108/94/17 166/94/18 165/95/69 
f 108/94/17 28/28/20 167/28/20 166/94/18 
f 28/28/20 30/30/21 168/30/21 167/28/20 
f 30/30/21 33/33/24 169/33/24 168/30/21 
f 33/33/24 36/36/25 170/36/25 169/33/24 
f 36/36/25 39/39/28 171/39/27 170/36/25 
f 39/39/28 125/99/74 172/99/29 171/39/27 
f 125/99/74 123/98/31 173/98/31 172/99/29 
f 123/98/31 121/97/33 174/97/33 173/98/31 
f 121/97/33 49/49/34 175/49/34 174/97/33 
f 49/49/34 51/51/36 176/51/37 175/49/34 
f 51/51/36 54/54/38 177/54/39 176/51/37 
f 54/54/38 57/57/40 178/57/41 177/54/39 
f 57/57/40 60/60/43 179/60/43 178/57/41 
f 60/60/43 63/63/45 180/63/44 179/60/43 
f 63/63/45 66/66/46 181/66/47 180/63/44 
f 66/66/46 69/69/48 182/69/49 181/66/47 
f 69/69/48 72/72/50 183/72/51 182/69/49 
f 72/72/50 75/75/53 184/75/52 183/72/51 
f 75/75/53 78/78/55 185/78/54 184/75/52 
f 78/78/55 81/81/57 186/81/57 185/78/54 
f 81/81/57 84/84/59 187/84/58 186/81/57 
f 84/84/59 92/93/61 188/93/60 187/84/58 
f 92/93/61 89/92/1 158/92/1 188/93/60 
s 2
f 86/86/76 85/85/76 82/82/76 3/3/76 
f 82/82/76 79/79/76 76/76/76 70/70/76 
f 76/76/76 73/73/76 70/70/76 
f 70/70/76 67/67/76 64/64/76 58/58/76 
f 64/64/76 61/61/76 58/58/76 
f 58/58/76 55/55/76 52/52/76 45/45/76 
f 52/52/76 47/47/76 45/45/76 
f 70/70/76 58/58/76 45/45/76 3/3/76 
f 45/45/76 43/43/76 41/41/76 37/37/76 
f 41/41/76 40/40/76 37/37/76 
f 37/37/76 34/34/76 31/31/76 24/24/76 
f 31/31/76 26/26/76 24/24/76 
f 45/45/76 37/37/76 24/24/76 3/3/76 
f 24/24/76 22/22/76 20/20/76 16/16/76 
f 20/20/76 19/19/76 16/16/76 
f 16/16/76 13/13/76 10/10/76 3/3/76 
f 10/10/76 5/5/76 3/3/76 
f 24/24/76 16/16/76 3/3/76 
f 82/82/76 70/70/76 3/3/76 
f 2/2/76 86/86/76 3/3/76 
# 154 polygons - 10 triangles

